<svg width="263" height="663" viewBox="0 0 263 663" fill="none" xmlns="http://www.w3.org/2000/svg">
<path d="M246 0C241.58 0 237.34 1.75595 234.215 4.88156C231.089 8.00716 229.333 12.2464 229.333 16.6667V182.667H148V16.6667C148 12.2464 146.244 8.00716 143.118 4.88156C139.993 1.75595 135.754 0 131.333 0C126.913 0 122.674 1.75595 119.548 4.88156C116.423 8.00716 114.667 12.2464 114.667 16.6667V182.667H33.3333V16.6667C33.3333 12.2464 31.5774 8.00716 28.4518 4.88156C25.3262 1.75595 21.0869 0 16.6667 0C12.2464 0 8.00716 1.75595 4.88156 4.88156C1.75595 8.00716 0 12.2464 0 16.6667V232.667C0.0615726 254.749 8.86108 275.91 24.4758 291.524C40.0905 307.139 61.2509 315.938 83.3333 316H114.667V645.667C114.735 650.066 116.513 654.265 119.624 657.376C122.735 660.487 126.934 662.265 131.333 662.333C135.754 662.333 139.993 660.577 143.118 657.452C146.244 654.326 148 650.087 148 645.667V316H179.333C201.435 316 222.631 307.22 238.259 291.592C253.887 275.964 262.667 254.768 262.667 232.667V16.6667C262.667 12.2464 260.911 8.00716 257.785 4.88156C254.659 1.75595 250.42 0 246 0ZM229.333 232.667C229.333 245.927 224.065 258.645 214.689 268.022C205.312 277.399 192.594 282.667 179.333 282.667H83.3333C70.1022 282.571 57.4402 277.272 48.0841 267.916C38.728 258.56 33.4293 245.898 33.3333 232.667V216H229.333V232.667Z" fill="#FF474A"/>
</svg>
