<svg width="183" height="663" viewBox="0 0 183 663" fill="none" xmlns="http://www.w3.org/2000/svg">
<path d="M145.667 6.33431C103.155 20.917 66.2628 48.4182 40.1459 84.9938C14.029 121.569 -0.00694524 165.391 2.57814e-06 210.334V315.334C0.0352219 331.06 6.29771 346.131 17.4172 357.25C28.5368 368.37 43.608 374.632 59.3333 374.668H149.333V646.001C149.333 650.421 151.089 654.66 154.215 657.786C157.34 660.912 161.58 662.668 166 662.668C170.399 662.599 174.598 660.821 177.709 657.71C180.82 654.599 182.598 650.4 182.667 646.001V16.6676C182.598 12.2688 180.82 8.06941 177.709 4.95858C174.598 1.84775 170.399 0.0697246 166 0.000980203C164.065 -0.0207307 162.144 0.318394 160.333 1.00098L145.667 6.33431ZM59.3333 341.334C52.4404 341.325 45.8323 338.583 40.9583 333.709C36.0843 328.835 33.3422 322.227 33.3333 315.334V210.334C33.3559 173.625 44.4342 137.774 65.1249 107.451C85.8157 77.1283 115.16 53.7404 149.333 40.3343V341.334H59.3333Z" fill="#FF474A"/>
</svg>
